<?xml version="1.0" encoding="UTF-8"?>
<svg version="1.1" xmlns="http://www.w3.org/2000/svg" width="128" height="128">
<path d="M0 0 C0.6930574 -0.0049649 1.38611481 -0.00992981 2.10017395 -0.01504517 C4.39255773 -0.02964735 6.68487228 -0.03646588 8.97729492 -0.04199219 C10.57289125 -0.0477457 12.16848756 -0.05350341 13.76408386 -0.05926514 C17.11062949 -0.06976991 20.45715114 -0.07561585 23.80371094 -0.07910156 C28.08428318 -0.08458206 32.36453666 -0.10860259 36.64500904 -0.13707352 C39.9419191 -0.15573209 43.2387529 -0.16090723 46.53571129 -0.16243744 C48.11331612 -0.16545776 49.69091981 -0.17346532 51.26847267 -0.18662262 C53.48000691 -0.20374934 55.69076942 -0.20178707 57.90234375 -0.1953125 C59.15904373 -0.19895813 60.41574371 -0.20260376 61.71052551 -0.20635986 C67.12991547 0.37347651 71.0303421 2.44845293 74.45776367 6.66113281 C75.19446289 7.54285156 75.19446289 7.54285156 75.94604492 8.44238281 C78.51147596 12.11922208 78.29342161 15.64410141 78.33813477 19.98413086 C78.350401 21.01889809 78.350401 21.01889809 78.36291504 22.0745697 C78.38772274 24.35732161 78.40427567 26.6400114 78.41870117 28.92285156 C78.42402485 29.70445963 78.42934853 30.4860677 78.43483353 31.29136086 C78.46154874 35.43080285 78.48092629 39.5702149 78.49536133 43.7097168 C78.50868368 47.1269823 78.53650612 50.54364828 78.57739258 53.96069336 C78.62685002 58.09449063 78.65149848 62.22774547 78.65858841 66.36182594 C78.66527939 67.93223811 78.68044521 69.5026392 78.70447922 71.0728817 C78.91805465 85.87457013 78.91805465 85.87457013 74.52578735 91.75056458 C70.90480933 95.45034651 66.91064758 98.05225943 61.66479492 98.25878906 C60.32481445 98.24138672 60.32481445 98.24138672 58.95776367 98.22363281 C57.60618164 98.21009766 57.60618164 98.21009766 56.22729492 98.19628906 C55.54022461 98.1846875 54.8531543 98.17308594 54.14526367 98.16113281 C54.19166992 98.79019531 54.23807617 99.41925781 54.28588867 100.06738281 C54.55199303 106.37785763 53.86579153 110.95961813 50.14526367 116.16113281 C45.02305678 121.02722936 41.20631556 122.40992488 34.17700195 122.43579102 C33.13719681 122.44345741 33.13719681 122.44345741 32.0763855 122.45127869 C29.78936072 122.46515573 27.502638 122.46421918 25.21557617 122.46191406 C23.62140796 122.46580247 22.02724079 122.47013743 20.43307495 122.47489929 C17.09247479 122.48235775 13.75198031 122.48207328 10.41137695 122.47680664 C6.13865136 122.47101704 1.86635997 122.48793223 -2.40629387 122.51115131 C-5.69892897 122.52591289 -8.99146014 122.52675699 -12.28412247 122.52364159 C-13.85892724 122.52415373 -15.433738 122.52937142 -17.00851059 122.53945351 C-19.21518555 122.55184598 -21.42102311 122.54500991 -23.62768555 122.53344727 C-25.50821121 122.5343914 -25.50821121 122.5343914 -27.42672729 122.53535461 C-32.84010121 121.9443986 -36.74233523 119.87071475 -40.16723633 115.66113281 C-40.65836914 115.07332031 -41.14950195 114.48550781 -41.65551758 113.87988281 C-44.22662369 110.19490988 -43.99752477 106.67114469 -44.03173828 102.32226562 C-44.03830948 101.63081451 -44.04488068 100.9393634 -44.051651 100.22695923 C-44.0713553 97.93939093 -44.08304102 95.65188824 -44.09301758 93.36425781 C-44.09709311 92.5814016 -44.10116863 91.79854538 -44.10536766 90.99196625 C-44.1262176 86.84718592 -44.14052315 82.70243859 -44.14990234 78.55761719 C-44.16095606 74.28601544 -44.19534658 70.01493615 -44.23507404 65.74351883 C-44.2612766 62.45085715 -44.26959745 59.1583192 -44.27318382 55.86556244 C-44.27804152 54.29155708 -44.28963224 52.71755695 -44.30822182 51.14365387 C-44.33268911 48.9345465 -44.33163518 46.72678077 -44.32470703 44.51757812 C-44.33057327 43.26309875 -44.33643951 42.00861938 -44.34248352 40.71612549 C-43.60197551 35.31886112 -41.40793396 31.63467929 -37.41723633 27.84863281 C-31.52230726 23.96660635 -26.76002052 23.91978307 -19.85473633 24.16113281 C-19.90114258 23.53207031 -19.94754883 22.90300781 -19.99536133 22.25488281 C-20.26129762 15.94839363 -19.61562386 11.33666612 -15.85473633 6.16113281 C-10.98774972 1.05270301 -6.91940225 0.03766659 0 0 Z M-5.73999023 14.95811462 C-7.31239617 18.06558357 -7.05231957 20.73635656 -6.85473633 24.16113281 C-6.28368164 24.16477844 -5.71262695 24.16842407 -5.12426758 24.17218018 C0.84635383 24.21415369 6.81621712 24.28360234 12.78637695 24.36865234 C15.01123453 24.39679053 17.23619074 24.41804046 19.46118164 24.43212891 C22.6688867 24.45365713 25.8754147 24.50035959 29.08276367 24.55175781 C30.56292969 24.55360077 30.56292969 24.55360077 32.07299805 24.55548096 C38.18018915 24.68354256 43.10306129 25.52670564 48.14526367 29.16113281 C51.68925281 33.61383711 53.24469968 37.17393722 53.35058594 42.81616211 C53.38050377 44.22728523 53.38050377 44.22728523 53.411026 45.66691589 C53.42773849 46.67949966 53.44445099 47.69208344 53.46166992 48.73535156 C53.48245102 49.77432083 53.50323212 50.8132901 53.52464294 51.88374329 C53.59007023 55.20530534 53.64899188 58.52694697 53.70776367 61.84863281 C53.75095537 64.09929211 53.79456987 66.34994334 53.83862305 68.60058594 C53.94574465 74.12068391 54.04752383 79.64086119 54.14526367 85.16113281 C59.06672353 85.62880558 59.06672353 85.62880558 63.34828186 83.5438385 C65.68216816 80.44922501 65.64640925 78.64222434 65.64697266 74.7878418 C65.66104408 72.85079628 65.66104408 72.85079628 65.67539978 70.87461853 C65.66492257 69.46881445 65.6535537 68.06301678 65.64135742 66.65722656 C65.64151243 65.21281359 65.64300164 63.7684002 65.64576721 62.32398987 C65.6471505 59.30019697 65.6346043 56.27687883 65.61181641 53.25317383 C65.58340584 49.37691337 65.58617658 45.50144006 65.59890652 41.62512112 C65.60585973 38.64395926 65.59807908 35.6629795 65.58564949 32.6818409 C65.58113325 31.25250001 65.58079971 29.82313958 65.58471489 28.39379692 C65.58762389 26.39750829 65.56897162 24.40122328 65.54931641 22.4050293 C65.54121193 20.70104225 65.54121193 20.70104225 65.53294373 18.96263123 C65.33945611 16.20457867 65.33945611 16.20457867 64.01698303 14.29614258 C61.25366688 12.62046893 59.01146402 12.77210942 55.79370117 12.75708008 C54.48224121 12.7443959 53.17078125 12.73171173 51.81958008 12.71864319 C50.38647301 12.72069448 48.95336702 12.72368238 47.52026367 12.72753906 C46.05199949 12.72297878 44.58373744 12.71767367 43.11547852 12.71165466 C40.03873013 12.70271888 36.96224124 12.70515219 33.88549805 12.71508789 C29.94073333 12.72658481 25.9968628 12.70635863 22.05221558 12.67717075 C19.02044986 12.65883454 15.98889952 12.65909584 12.95709229 12.66480827 C11.50261174 12.66496177 10.04811686 12.65889372 8.59368896 12.6465168 C6.56145113 12.63165841 4.52906633 12.64488709 2.49682617 12.65942383 C1.34005371 12.65959 0.18328125 12.65975616 -1.00854492 12.65992737 C-3.93358627 12.90408688 -3.93358627 12.90408688 -5.73999023 14.95811462 Z M25.14526367 49.16113281 C20.01344229 52.69531169 16.84169079 57.34786014 13.27026367 62.34863281 C12.08660325 63.98884797 10.90170932 65.62817368 9.71557617 67.26660156 C9.13453125 68.0701709 8.55348633 68.87374023 7.95483398 69.70166016 C5.09839975 73.58397511 2.13000688 77.37700642 -0.85473633 81.16113281 C-3.41689197 78.59897717 -5.94651021 76.0578872 -8.35473633 73.34863281 C-10.64603313 70.97145264 -10.64603313 70.97145264 -13.47973633 70.66113281 C-15.86448902 71.02809138 -15.86448902 71.02809138 -17.72973633 72.28613281 C-19.10747313 74.18892906 -19.10747313 74.18892906 -18.72192383 76.89941406 C-17.67799421 80.82590611 -15.75084968 83.26013881 -13.10473633 86.22363281 C-12.67418945 86.72701172 -12.24364258 87.23039062 -11.80004883 87.74902344 C-10.51004784 89.24179405 -9.18246148 90.7018136 -7.85473633 92.16113281 C-7.02458008 93.12921875 -6.19442383 94.09730469 -5.33911133 95.09472656 C-3.06397355 97.41678545 -3.06397355 97.41678545 -0.28833008 97.24707031 C2.76314046 95.88541893 4.03049411 94.42766789 6.08276367 91.78613281 C6.85233398 90.8 7.6219043 89.81386719 8.41479492 88.79785156 C9.32768118 87.5876665 10.23756171 86.37521121 11.14526367 85.16113281 C11.6948877 84.42846191 12.24451172 83.69579102 12.81079102 82.94091797 C16.43895741 78.08912688 20.01856266 73.2041564 23.57592773 68.30029297 C24.91477903 66.47530618 26.2787142 64.67766009 27.66870117 62.89160156 C28.3209668 62.03179687 28.97323242 61.17199219 29.64526367 60.28613281 C30.19182617 59.58746094 30.73838867 58.88878906 31.30151367 58.16894531 C32.4128885 56.08874991 32.4128885 56.08874991 31.46557617 53.48535156 C29.79552054 50.54546073 28.32790606 50.08242403 25.14526367 49.16113281 Z " fill="#1363FF" transform="translate(46.854736328125,2.8388671875)"/>
</svg>
